<svg xmlns="http://www.w3.org/2000/svg" width="22" height="22" viewBox="0 0 22 22"><defs><style>.a{fill:#69c;}</style></defs><path class="a" d="M11,7.6a5.641,5.641,0,1,0,5.639,5.641A5.631,5.631,0,0,0,11,7.6ZM11,16.9a3.667,3.667,0,1,1,3.666-3.667A3.673,3.673,0,0,1,11,16.9Zm7.185-9.538a1.315,1.315,0,1,1-1.315-1.316A1.312,1.312,0,0,1,18.182,7.366ZM21.917,8.7a6.512,6.512,0,0,0-1.777-4.61,6.551,6.551,0,0,0-4.609-1.777c-1.816-.1-7.259-.1-9.075,0A6.542,6.542,0,0,0,1.849,4.087,6.533,6.533,0,0,0,.072,8.7c-.1,1.816-.1,7.261,0,9.077a6.512,6.512,0,0,0,1.777,4.61A6.56,6.56,0,0,0,6.457,24.16c1.816.1,7.259.1,9.075,0a6.508,6.508,0,0,0,4.609-1.777,6.554,6.554,0,0,0,1.777-4.61c.1-1.816.1-7.256,0-9.072ZM19.571,19.723a3.712,3.712,0,0,1-2.091,2.091c-1.448.574-4.883.442-6.483.442s-5.04.128-6.483-.442a3.712,3.712,0,0,1-2.091-2.091c-.574-1.448-.442-4.885-.442-6.485S1.854,8.2,2.423,6.753A3.712,3.712,0,0,1,4.514,4.662C5.962,4.087,9.4,4.22,11,4.22s5.04-.128,6.483.442a3.712,3.712,0,0,1,2.091,2.091c.574,1.448.442,4.885.442,6.485S20.146,18.279,19.571,19.723Z" transform="translate(0.005 -2.238)"/></svg>