<svg xmlns="http://www.w3.org/2000/svg" xmlns:xlink="http://www.w3.org/1999/xlink" width="40" height="40" viewBox="0 0 40 40"><defs><style>.a{fill:rgba(255,255,255,0.8);}.b{fill:#6399c7;}.c{filter:url(#a);}</style><filter id="a" x="0" y="0" width="40" height="40" filterUnits="userSpaceOnUse"><feOffset dy="3" input="SourceAlpha"/><feGaussianBlur stdDeviation="3" result="b"/><feFlood flood-opacity="0.161"/><feComposite operator="in" in2="b"/><feComposite in="SourceGraphic"/></filter></defs><g transform="translate(9.407 6.172)"><g class="c" transform="matrix(1, 0, 0, 1, -9.41, -6.17)"><circle class="a" cx="11" cy="11" r="11" transform="translate(9 6)"/></g><path class="b" d="M30.981,101.3l-4.247,4.111a.764.764,0,0,1-1.059,0l-.706-.683a.706.706,0,0,1,0-1.025l3.01-2.914-3.01-2.914a.706.706,0,0,1,0-1.025l.7-.689a.764.764,0,0,1,1.059,0l4.247,4.111A.707.707,0,0,1,30.981,101.3Z" transform="translate(-16.911 -89.71)"/></g></svg>